<svg width="24" height="25" viewBox="0 0 24 25" fill="none" xmlns="http://www.w3.org/2000/svg">
<path d="M23.5059 24.0371H23.5121V15.2691C23.5121 10.9805 22.631 7.67578 17.8478 7.67578C15.5488 7.67578 14.006 8.99878 13.3746 10.2531H13.308V8.07061H8.77344V24.036H13.4953V16.1318C13.4953 14.0508 13.8719 12.0385 16.33 12.0385C18.7518 12.0385 18.7882 14.414 18.7882 16.266V24.0371H23.5059Z" fill="white"/>
<path d="M1.08984 8.07031H5.81792V24.0368H1.08984V8.07031Z" fill="white"/>
<path d="M3.4476 0.128936C2.90234 0.126348 2.36863 0.29367 1.91424 0.609664C1.45984 0.925659 1.10524 1.37608 0.895432 1.90375C0.685629 2.43141 0.630089 3.01254 0.73586 3.57337C0.84163 4.13419 1.10394 4.64942 1.4895 5.05366C1.87506 5.4579 2.36648 5.73292 2.90139 5.84382C3.43629 5.95471 3.99057 5.89648 4.49386 5.67651C4.99714 5.45654 5.42674 5.08476 5.72814 4.60835C6.02953 4.13194 6.18912 3.57238 6.18665 3.0007C6.18637 2.23915 5.8977 1.50887 5.38409 0.970376C4.87048 0.431878 4.17395 0.129225 3.4476 0.128936Z" fill="white"/>
</svg>
