<svg width="38" height="32" viewBox="0 0 38 32" fill="none" xmlns="http://www.w3.org/2000/svg">
<path d="M25.3015 29.3684V26.3276C25.3015 24.7147 24.6605 23.1678 23.5194 22.0273C22.3783 20.8868 20.8307 20.2461 19.217 20.2461H8.56895C6.95522 20.2461 5.40759 20.8868 4.26651 22.0273C3.12543 23.1678 2.48438 24.7147 2.48438 26.3276V29.3684" stroke="white" stroke-width="3.5" stroke-linecap="round" stroke-linejoin="round"/>
<path d="M14.0123 14.2431C17.3285 14.2431 20.0168 11.5024 20.0168 8.12154C20.0168 4.74071 17.3285 2 14.0123 2C10.6961 2 8.00781 4.74071 8.00781 8.12154C8.00781 11.5024 10.6961 14.2431 14.0123 14.2431Z" stroke="white" stroke-width="3.5" stroke-linecap="round" stroke-linejoin="round"/>
<path d="M26.7422 14.1219L29.7845 17.1226L35.8691 11.1211" stroke="white" stroke-width="3.5" stroke-linecap="round" stroke-linejoin="round"/>
</svg>
