<svg width="16" height="17" viewBox="0 0 16 17" fill="none" xmlns="http://www.w3.org/2000/svg">
<path fill-rule="evenodd" clip-rule="evenodd" d="M12.5499 10.4181C12.7615 10.3935 12.9758 10.4142 13.1788 10.4788C13.3819 10.5433 13.5689 10.6504 13.7279 10.7929C13.8869 10.9353 14.0142 11.11 14.1013 11.3054C14.1884 11.5008 14.2334 11.7124 14.2334 11.9265C14.2334 12.1407 14.1884 12.3524 14.1013 12.5478C14.0142 12.7432 13.8869 12.9178 13.7279 13.0603C13.5689 13.2027 13.3819 13.3098 13.1788 13.3744C12.9758 13.439 12.7615 13.4595 12.5499 13.4349C12.3384 13.4595 12.124 13.439 11.921 13.3744C11.718 13.3098 11.5309 13.2027 11.3719 13.0603C11.213 12.9178 11.0858 12.7432 10.9987 12.5478C10.9115 12.3524 10.8665 12.1407 10.8665 11.9265C10.8665 11.7124 10.9115 11.5008 10.9987 11.3054C11.0858 11.11 11.213 10.9353 11.3719 10.7929C11.5309 10.6504 11.718 10.5433 11.921 10.4788C12.124 10.4142 12.3384 10.3935 12.5499 10.4181ZM8.22998 10.4181C8.52863 10.4181 8.82053 10.5072 9.06885 10.6741C9.31717 10.8409 9.51071 11.0781 9.625 11.3556C9.73929 11.6331 9.7692 11.9384 9.71094 12.2329C9.65267 12.5275 9.50891 12.798 9.29773 13.0103C9.08655 13.2227 8.81745 13.3674 8.52454 13.426C8.23162 13.4846 7.92802 13.4545 7.6521 13.3396C7.37618 13.2246 7.14029 13.03 6.97437 12.7803C6.80844 12.5306 6.71997 12.2369 6.71997 11.9366C6.71728 11.7364 6.75441 11.5379 6.82935 11.3524C6.90428 11.1669 7.01549 10.9984 7.15625 10.8568C7.29701 10.7153 7.46451 10.6036 7.64893 10.5282C7.83334 10.4529 8.03094 10.4154 8.22998 10.4181ZM3.87988 10.4181C4.09141 10.3935 4.30577 10.4142 4.50879 10.4788C4.71181 10.5433 4.899 10.6504 5.05798 10.7929C5.21697 10.9353 5.34416 11.11 5.43127 11.3054C5.51839 11.5008 5.56348 11.7124 5.56348 11.9265C5.56348 12.1407 5.51839 12.3524 5.43127 12.5478C5.34416 12.7432 5.21697 12.9178 5.05798 13.0603C4.899 13.2027 4.71181 13.3098 4.50879 13.3744C4.30577 13.439 4.09141 13.4595 3.87988 13.4349C3.5119 13.3921 3.17246 13.2149 2.92603 12.9368C2.6796 12.6587 2.54346 12.299 2.54346 11.9265C2.54346 11.554 2.6796 11.1945 2.92603 10.9164C3.17246 10.6382 3.5119 10.4609 3.87988 10.4181ZM12.5499 6.48626C12.9487 6.48625 13.3312 6.64485 13.6141 6.92744C13.897 7.21004 14.0573 7.5937 14.0599 7.99468C14.0626 8.19484 14.0254 8.39342 13.9504 8.57887C13.8755 8.76432 13.7644 8.93289 13.6237 9.07443C13.4829 9.21598 13.3154 9.3277 13.131 9.40305C12.9466 9.4784 12.749 9.51586 12.5499 9.51316C12.1485 9.51317 11.7634 9.35351 11.4786 9.06903C11.1939 8.78455 11.0325 8.39832 11.0299 7.99468C11.0402 7.59442 11.2043 7.21372 11.4877 6.93248C11.7711 6.65124 12.1518 6.49133 12.5499 6.48626ZM8.22998 6.48626C8.62714 6.49141 9.00666 6.65159 9.28845 6.93309C9.57024 7.21459 9.73223 7.59533 9.73999 7.99468C9.73999 8.3974 9.58091 8.78365 9.29773 9.06842C9.01455 9.35319 8.63046 9.51316 8.22998 9.51316C8.03094 9.51586 7.83334 9.4784 7.64893 9.40305C7.46451 9.3277 7.29701 9.21598 7.15625 9.07443C7.01549 8.93289 6.90428 8.76432 6.82935 8.57887C6.75441 8.39342 6.71728 8.19484 6.71997 7.99468C6.72261 7.5937 6.88288 7.21004 7.16577 6.92744C7.44867 6.64485 7.83123 6.48625 8.22998 6.48626ZM3.87988 6.48626C4.27863 6.48625 4.6612 6.64485 4.94409 6.92744C5.22699 7.21004 5.38725 7.5937 5.38989 7.99468C5.41436 8.20739 5.3938 8.42283 5.32959 8.62699C5.26538 8.83115 5.15899 9.01939 5.01733 9.17927C4.87568 9.33914 4.70199 9.46705 4.50769 9.55465C4.31339 9.64226 4.10283 9.68759 3.88989 9.68759C3.67696 9.68759 3.46652 9.64226 3.27222 9.55465C3.07792 9.46705 2.90423 9.33914 2.76257 9.17927C2.62092 9.01939 2.51441 8.83115 2.4502 8.62699C2.38598 8.42283 2.36543 8.20739 2.38989 7.99468C2.39507 7.59624 2.55477 7.21559 2.83496 6.93383C3.11515 6.65207 3.49368 6.49147 3.88989 6.48626H3.87988ZM3.46997 3.03696H4.46997C4.53564 3.03566 4.60036 3.02134 4.66052 2.99486C4.72069 2.96837 4.77505 2.93029 4.82056 2.88266C4.86606 2.83503 4.90187 2.77882 4.92578 2.71731C4.94969 2.65579 4.96129 2.59013 4.95996 2.52409V0.512871C4.96129 0.446838 4.94969 0.381169 4.92578 0.319655C4.90187 0.25814 4.86606 0.202052 4.82056 0.154426C4.77505 0.1068 4.72069 0.0685889 4.66052 0.042105C4.60036 0.0156212 4.53564 0.00130746 4.46997 8.94545e-09H3.46997C3.33911 0.00523945 3.21549 0.0619609 3.12573 0.157863C3.03597 0.253765 2.98727 0.381202 2.98999 0.512871V2.52409C2.98976 2.65504 3.03929 2.78116 3.12854 2.87652C3.21779 2.97188 3.33998 3.02926 3.46997 3.03696ZM16 4.04257V14.0987C16 14.6321 15.7893 15.1436 15.4142 15.5208C15.0391 15.898 14.5304 16.1099 14 16.1099H2C1.46957 16.1099 0.960766 15.898 0.585693 15.5208C0.210621 15.1436 0 14.6321 0 14.0987V4.04257C0 3.50917 0.210621 2.99763 0.585693 2.62046C0.960766 2.24328 1.46957 2.03135 2 2.03135H2.47998V2.52409C2.47998 2.7908 2.58529 3.04662 2.77283 3.23521C2.96036 3.4238 3.21476 3.5297 3.47998 3.5297H4.47998C4.7452 3.5297 4.99948 3.4238 5.18701 3.23521C5.37455 3.04662 5.47998 2.7908 5.47998 2.52409V2.03135H10.48V2.52409C10.48 2.7908 10.5853 3.04662 10.7728 3.23521C10.9604 3.4238 11.2148 3.5297 11.48 3.5297H12.48C12.7452 3.5297 12.9995 3.4238 13.187 3.23521C13.3745 3.04662 13.48 2.7908 13.48 2.52409V2.03135H14C14.5304 2.03135 15.0391 2.24328 15.4142 2.62046C15.7893 2.99763 16 3.50917 16 4.04257ZM15 6.0538C15 4.11297 3.71 5.04818 2 5.04818C1.73478 5.04818 1.48038 5.15421 1.29285 5.3428C1.10531 5.53139 1 5.78709 1 6.0538V14.0987C1 14.3654 1.10531 14.6212 1.29285 14.8098C1.48038 14.9984 1.73478 15.1043 2 15.1043H14C14.2652 15.1043 14.5195 14.9984 14.707 14.8098C14.8946 14.6212 15 14.3654 15 14.0987V6.0538ZM11.49 3.03696H12.49C12.6244 3.03439 12.7527 2.97952 12.8478 2.88389C12.9429 2.78826 12.9974 2.65931 13 2.52409V0.512871C13 0.376852 12.9462 0.246433 12.8506 0.150252C12.7549 0.0540722 12.6253 8.94545e-09 12.49 8.94545e-09H11.49C11.3538 -2.53191e-05 11.223 0.053737 11.1257 0.149639C11.0285 0.24554 10.9726 0.375935 10.97 0.512871V2.52409C10.9751 2.66021 11.0317 2.78925 11.1284 2.88462C11.2251 2.98 11.3546 3.03449 11.49 3.03696Z" fill="url(#paint0_linear_1958_10026)"/>
<defs>
<linearGradient id="paint0_linear_1958_10026" x1="19380.5" y1="23159.8" x2="19637" y2="23159.8" gradientUnits="userSpaceOnUse">
<stop stop-color="#E32068"/>
<stop offset="1" stop-color="#F5003B"/>
</linearGradient>
</defs>
</svg>
