<svg width="14" height="14" viewBox="0 0 14 14" fill="none" xmlns="http://www.w3.org/2000/svg">
<g opacity="0.8">
<path d="M5.25121 11.8086C5.03465 11.8086 4.82293 11.8728 4.64287 11.9931C4.46281 12.1134 4.32247 12.2844 4.2396 12.4845C4.15673 12.6846 4.13504 12.9047 4.17729 13.1171C4.21954 13.3295 4.32381 13.5246 4.47694 13.6778C4.63007 13.8309 4.82515 13.9352 5.03755 13.9774C5.24995 14.0197 5.47013 13.998 5.6702 13.9151C5.87028 13.8323 6.04131 13.6919 6.16163 13.5118C6.28194 13.3318 6.34614 13.1201 6.34614 12.9035C6.34614 12.6131 6.23076 12.3346 6.02542 12.1293C5.82008 11.924 5.54161 11.8086 5.25121 11.8086ZM10.7833 11.8086C10.5667 11.8086 10.355 11.8728 10.1749 11.9931C9.99486 12.1134 9.85452 12.2844 9.77165 12.4845C9.68877 12.6846 9.66709 12.9047 9.70934 13.1171C9.75159 13.3295 9.85586 13.5246 10.009 13.6778C10.1621 13.8309 10.3573 13.9352 10.5697 13.9774C10.7821 14.0197 11.0022 13.998 11.2023 13.9151C11.4023 13.8323 11.5734 13.6919 11.6937 13.5118C11.814 13.3318 11.8782 13.1201 11.8782 12.9035C11.8782 12.6131 11.7628 12.3346 11.5575 12.1293C11.3521 11.924 11.0737 11.8086 10.7833 11.8086Z" fill="#F9003B"/>
<path d="M13.2436 2.08574H3.59767L3.27441 0.855235C3.22999 0.612306 3.1008 0.393026 2.90984 0.236436C2.71887 0.0798463 2.47853 -0.00388881 2.23161 0.000138808H0.667407C0.490404 0.000138808 0.320622 0.0704538 0.195461 0.195614C0.0703011 0.320774 0 0.490527 0 0.66753C0 0.844534 0.0703011 1.01429 0.195461 1.13945C0.320622 1.26461 0.490404 1.33492 0.667407 1.33492H2.01782L3.85837 8.27997L3.13884 9.93281C3.096 10.0347 3.07893 10.1455 3.08913 10.2556C3.09933 10.3656 3.13644 10.4715 3.19727 10.5637C3.25809 10.656 3.34074 10.7318 3.43785 10.7846C3.53497 10.8373 3.64361 10.8653 3.75412 10.8661H12.1382C12.3152 10.8661 12.485 10.7958 12.6102 10.6706C12.7353 10.5455 12.8056 10.3757 12.8056 10.1987C12.8056 10.0217 12.7353 9.85197 12.6102 9.72681C12.485 9.60165 12.3152 9.53133 12.1382 9.53133H4.74473L5.14622 8.60324C5.14622 8.60324 5.14622 8.57717 5.14622 8.56674H12.0704C12.2431 8.56766 12.411 8.50985 12.5464 8.40278C12.6819 8.29572 12.777 8.14577 12.8161 7.97756L13.9788 3.02426C14.0055 2.9128 14.0066 2.79675 13.9822 2.68477C13.9578 2.57278 13.9084 2.46776 13.8377 2.37753C13.767 2.28731 13.6769 2.21421 13.574 2.16368C13.4712 2.11316 13.3582 2.08651 13.2436 2.08574ZM6.76776 6.30908C6.75542 6.42701 6.69986 6.53619 6.61176 6.61555C6.52366 6.69491 6.4093 6.73882 6.29073 6.73882C6.17215 6.73882 6.05779 6.69491 5.96969 6.61555C5.88159 6.53619 5.82597 6.42701 5.81362 6.30908V4.34862C5.80663 4.28177 5.81378 4.21421 5.83456 4.1503C5.85535 4.08639 5.88932 4.02756 5.9343 3.97762C5.97928 3.92769 6.03425 3.88776 6.09565 3.86044C6.15704 3.83311 6.22352 3.81898 6.29073 3.81898C6.35793 3.81898 6.42434 3.83311 6.48574 3.86044C6.54714 3.88776 6.60211 3.92769 6.64709 3.97762C6.69207 4.02756 6.7261 4.08639 6.74689 4.1503C6.76767 4.21421 6.77476 4.28177 6.76776 4.34862V6.30908ZM9.05672 6.30908C9.04437 6.42701 8.98882 6.53619 8.90072 6.61555C8.81262 6.69491 8.69825 6.73882 8.57968 6.73882C8.46111 6.73882 8.34668 6.69491 8.25858 6.61555C8.17048 6.53619 8.11492 6.42701 8.10258 6.30908V4.34862C8.09558 4.28177 8.10273 4.21421 8.12352 4.1503C8.14431 4.08639 8.17827 4.02756 8.22325 3.97762C8.26823 3.92769 8.3232 3.88776 8.3846 3.86044C8.446 3.83311 8.51247 3.81898 8.57968 3.81898C8.64689 3.81898 8.7133 3.83311 8.7747 3.86044C8.83609 3.88776 8.89106 3.92769 8.93604 3.97762C8.98102 4.02756 9.01505 4.08639 9.03584 4.1503C9.05663 4.21421 9.06371 4.28177 9.05672 4.34862V6.30908ZM11.3405 6.30908C11.3281 6.42701 11.2726 6.53619 11.1845 6.61555C11.0964 6.69491 10.982 6.73882 10.8634 6.73882C10.7448 6.73882 10.6304 6.69491 10.5423 6.61555C10.4542 6.53619 10.3987 6.42701 10.3863 6.30908V4.34862C10.3793 4.28177 10.3864 4.21421 10.4072 4.1503C10.428 4.08639 10.462 4.02756 10.507 3.97762C10.552 3.92769 10.6069 3.88776 10.6683 3.86044C10.7297 3.83311 10.7962 3.81898 10.8634 3.81898C10.9306 3.81898 10.997 3.83311 11.0584 3.86044C11.1198 3.88776 11.1748 3.92769 11.2198 3.97762C11.2648 4.02756 11.2988 4.08639 11.3196 4.1503C11.3404 4.21421 11.3474 4.28177 11.3405 4.34862V6.30908Z" fill="#F9003B"/>
</g>
</svg>
