<svg width="21" height="25" viewBox="0 0 21 25" fill="none" xmlns="http://www.w3.org/2000/svg">
<path d="M15.4176 8.77068C16.9348 9.90814 18.7538 10.5184 20.619 10.5158V6.60241C20.2515 6.60235 19.8851 6.56214 19.5256 6.48243V9.56361C17.6606 9.56568 15.8417 8.95544 14.3242 7.81852V15.8056C14.3226 17.1163 13.9817 18.402 13.3377 19.5255C12.6938 20.649 11.771 21.5681 10.6678 22.1848C9.56468 22.8015 8.32255 23.0927 7.07394 23.0272C5.82533 22.9617 4.61708 22.5421 3.57812 21.8131C4.5372 22.8408 5.76647 23.5458 7.1092 23.8382C8.45193 24.1306 9.8473 23.9971 11.1174 23.4548C12.3875 22.9125 13.4748 21.9859 14.2406 20.7931C15.0065 19.6004 15.4162 18.1956 15.4176 16.7577V8.77068ZM16.7699 4.82241C15.9971 3.94194 15.5219 2.81939 15.4176 1.6278V1.125H14.3773C14.5062 1.88287 14.7858 2.60379 15.1981 3.24083C15.6103 3.87787 16.1459 4.41676 16.7699 4.82241V4.82241ZM5.99263 18.7504C5.63649 18.2596 5.41825 17.6742 5.36253 17.0603C5.3068 16.4464 5.41582 15.8284 5.67727 15.276C5.93871 14.7235 6.34219 14.2587 6.84218 13.9339C7.34218 13.6091 7.91878 13.4372 8.50698 13.4377C8.83201 13.4378 9.15512 13.49 9.46508 13.5926V9.59087C9.10289 9.53853 8.73727 9.51665 8.37175 9.52543V12.6393C7.61625 12.3904 6.79911 12.4482 6.08237 12.8013C5.36563 13.1544 4.80164 13.7771 4.50223 14.5457C4.20281 15.3144 4.18986 16.173 4.46592 16.9512C4.74198 17.7294 5.2869 18.3704 5.99263 18.7471V18.7504Z" stroke="white" stroke-width="0.5" stroke-miterlimit="10"/>
<path d="M14.3259 7.81742C15.8432 8.95475 17.6622 9.56503 19.5273 9.56252V6.48243C18.4665 6.24196 17.5032 5.66188 16.7706 4.82241C16.1481 4.41586 15.6141 3.87658 15.2033 3.23958C14.7926 2.60259 14.5142 1.88213 14.3863 1.125H11.6628V16.7577C11.6599 17.4496 11.4505 18.1232 11.0639 18.6839C10.6773 19.2447 10.1329 19.6644 9.50717 19.8842C8.88144 20.104 8.20576 20.1129 7.57499 19.9095C6.94421 19.7062 6.39 19.3008 5.99015 18.7504C5.28745 18.3717 4.74566 17.7307 4.47167 16.9537C4.19768 16.1767 4.21139 15.3203 4.51011 14.5534C4.80882 13.7866 5.37084 13.1649 6.08526 12.8112C6.79968 12.4574 7.61462 12.3973 8.36927 12.6426V9.52543C7.02403 9.55571 5.71658 9.9977 4.60784 10.797C3.4991 11.5963 2.63745 12.718 2.12893 14.0242C1.62041 15.3303 1.48723 16.7638 1.74575 18.1482C2.00427 19.5327 2.64322 20.8077 3.58398 21.8163C4.62317 22.5458 5.8318 22.9657 7.08084 23.0312C8.32988 23.0967 9.57243 22.8053 10.6759 22.1882C11.7793 21.571 12.7021 20.6513 13.3459 19.5272C13.9897 18.4031 14.3302 17.1168 14.3311 15.8056V7.81742H14.3259Z" fill="white"/>
<path d="M19.5329 6.48256V5.64928C18.5568 5.65076 17.6001 5.36426 16.772 4.82254C17.5054 5.66325 18.4704 6.24348 19.5329 6.48256ZM14.3845 1.12513C14.3596 0.975708 14.3408 0.826284 14.3273 0.67577V0.171875H10.5708V15.8057C10.5684 16.3695 10.4287 16.9234 10.165 17.4148C9.90126 17.9062 9.52228 18.3188 9.06392 18.6137C8.60556 18.9086 8.08299 19.076 7.54569 19.0999C7.0084 19.1239 6.47417 19.0036 5.9936 18.7506C6.39345 19.301 6.94766 19.7063 7.57844 19.9097C8.20922 20.113 8.8849 20.1041 9.51064 19.8843C10.1364 19.6645 10.6807 19.2448 11.0674 18.6841C11.454 18.1233 11.6634 17.4498 11.6663 16.7579V1.12513H14.3845ZM8.37064 9.52338V8.63884C6.82473 8.4155 5.25225 8.74807 3.90981 9.58229C2.56738 10.4165 1.53424 11.7031 0.978986 13.2322C0.423729 14.7612 0.379141 16.4424 0.852493 18.0015C1.32585 19.5605 2.28919 20.9053 3.58534 21.8165C2.64458 20.8078 2.00562 19.5328 1.7471 18.1484C1.48857 16.7639 1.62176 15.3304 2.13028 14.0243C2.6388 12.7182 3.50046 11.5964 4.6092 10.7971C5.71794 9.99783 7.0254 9.55584 8.37064 9.52557V9.52338Z" stroke="white" stroke-width="0.5" stroke-miterlimit="10"/>
</svg>
