<svg width="24" height="20" viewBox="0 0 24 20" fill="none" xmlns="http://www.w3.org/2000/svg">
<path d="M4.5 2.5C4.5 1.89062 4.26562 1.375 3.84375 0.90625C3.375 0.484375 2.85938 0.25 2.25 0.25C1.59375 0.25 1.07812 0.484375 0.65625 0.90625C0.1875 1.375 0 1.89062 0 2.5C0 3.15625 0.1875 3.67188 0.65625 4.09375C1.07812 4.5625 1.59375 4.75 2.25 4.75C2.85938 4.75 3.375 4.5625 3.84375 4.09375C4.26562 3.67188 4.5 3.15625 4.5 2.5ZM2.25 7.75C2.85938 7.75 3.375 7.98438 3.84375 8.40625C4.26562 8.875 4.5 9.39062 4.5 10C4.5 10.6562 4.26562 11.1719 3.84375 11.5938C3.375 12.0625 2.85938 12.25 2.25 12.25C1.59375 12.25 1.07812 12.0625 0.65625 11.5938C0.1875 11.1719 0 10.6562 0 10C0 9.39062 0.1875 8.875 0.65625 8.40625C1.07812 7.98438 1.59375 7.75 2.25 7.75ZM2.25 15.25C2.85938 15.25 3.375 15.4844 3.84375 15.9062C4.26562 16.375 4.5 16.8906 4.5 17.5C4.5 18.1562 4.26562 18.6719 3.84375 19.0938C3.375 19.5625 2.85938 19.75 2.25 19.75C1.59375 19.75 1.07812 19.5625 0.65625 19.0938C0.1875 18.6719 0 18.1562 0 17.5C0 16.8906 0.1875 16.375 0.65625 15.9062C1.07812 15.4844 1.59375 15.25 2.25 15.25ZM6.75 4.1875C6.51562 4.1875 6.32812 4.14062 6.1875 4C6.04688 3.85938 6 3.67188 6 3.4375V1.5625C6 1.375 6.04688 1.1875 6.1875 1.04688C6.32812 0.90625 6.51562 0.8125 6.75 0.8125H23.25C23.4375 0.8125 23.625 0.90625 23.7656 1.04688C23.9062 1.1875 24 1.375 24 1.5625V3.4375C24 3.67188 23.9062 3.85938 23.7656 4C23.625 4.14062 23.4375 4.1875 23.25 4.1875H6.75ZM6.75 11.6875C6.51562 11.6875 6.32812 11.6406 6.1875 11.5C6.04688 11.3594 6 11.1719 6 10.9375V9.0625C6 8.875 6.04688 8.6875 6.1875 8.54688C6.32812 8.40625 6.51562 8.3125 6.75 8.3125H23.25C23.4375 8.3125 23.625 8.40625 23.7656 8.54688C23.9062 8.6875 24 8.875 24 9.0625V10.9375C24 11.1719 23.9062 11.3594 23.7656 11.5C23.625 11.6406 23.4375 11.6875 23.25 11.6875H6.75ZM6.75 19.1875C6.51562 19.1875 6.32812 19.1406 6.1875 19C6.04688 18.8594 6 18.6719 6 18.4375V16.5625C6 16.375 6.04688 16.1875 6.1875 16.0469C6.32812 15.9062 6.51562 15.8125 6.75 15.8125H23.25C23.4375 15.8125 23.625 15.9062 23.7656 16.0469C23.9062 16.1875 24 16.375 24 16.5625V18.4375C24 18.6719 23.9062 18.8594 23.7656 19C23.625 19.1406 23.4375 19.1875 23.25 19.1875H6.75Z" fill="#343846"/>
</svg>
