<svg width="13" height="17" viewBox="0 0 13 17" fill="none" xmlns="http://www.w3.org/2000/svg">
<path d="M8.84978 8.4656C9.62018 7.96983 10.21 7.23627 10.5309 6.37495C10.8518 5.51364 10.8864 4.57098 10.6296 3.68821C10.3727 2.80544 9.83831 2.03017 9.10637 1.47862C8.37442 0.927061 7.48439 0.628906 6.56975 0.628906C5.6551 0.628906 4.76507 0.927061 4.03312 1.47862C3.30118 2.03017 2.76676 2.80544 2.50993 3.68821C2.2531 4.57098 2.28768 5.51364 2.60856 6.37495C2.92945 7.23627 3.51931 7.96983 4.28972 8.4656C3.07667 8.93301 2.03386 9.7606 1.29973 10.8383C0.565596 11.9161 0.17492 13.1929 0.179731 14.4993C0.182361 15.0532 0.402407 15.5837 0.791914 15.9754C1.18142 16.3671 1.70885 16.5882 2.25969 16.5909H10.8797C11.4305 16.5882 11.9581 16.3671 12.3476 15.9754C12.7371 15.5837 12.9571 15.0532 12.9598 14.4993C12.9646 13.1929 12.5739 11.9161 11.8398 10.8383C11.1056 9.7606 10.0628 8.93301 8.84978 8.4656ZM3.42973 4.88557C3.42973 4.26105 3.61388 3.65066 3.95891 3.13139C4.30393 2.61213 4.79433 2.2074 5.36809 1.96841C5.94185 1.72942 6.57319 1.66686 7.18229 1.7887C7.7914 1.91053 8.35095 2.21129 8.79008 2.65289C9.22922 3.09449 9.5283 3.65706 9.64946 4.26958C9.77062 4.8821 9.70841 5.51699 9.47075 6.09397C9.23309 6.67095 8.83062 7.16409 8.31425 7.51105C7.79788 7.85802 7.19078 8.0432 6.56975 8.0432C6.15354 8.0419 5.74172 7.95777 5.35808 7.79548C4.97443 7.63318 4.62649 7.39602 4.33452 7.09774C4.04254 6.79945 3.81233 6.44595 3.65703 6.05763C3.50172 5.66932 3.42444 5.25387 3.42973 4.83536V4.88557ZM10.8797 15.4545H2.25969C1.99447 15.4545 1.74019 15.3486 1.55266 15.1601C1.36512 14.9715 1.25969 14.7156 1.25969 14.4489C1.25969 13.0381 1.81706 11.685 2.80913 10.6873C3.80119 9.68971 5.14673 9.12934 6.54973 9.12934C7.95272 9.12934 9.29826 9.68971 10.2903 10.6873C11.2824 11.685 11.8398 13.0381 11.8398 14.4489C11.8275 14.7 11.722 14.9374 11.5444 15.1143C11.3667 15.2911 11.1295 15.3946 10.8797 15.4043V15.4545Z" fill="url(#paint0_linear_1479_15359)"/>
<defs>
<linearGradient id="paint0_linear_1479_15359" x1="17029.6" y1="22955.2" x2="17192.9" y2="22955.2" gradientUnits="userSpaceOnUse">
<stop stop-color="#E32068"/>
<stop offset="1" stop-color="#F5003B"/>
</linearGradient>
</defs>
</svg>
