<svg width="56" height="56" viewBox="0 0 56 56" fill="none" xmlns="http://www.w3.org/2000/svg">
<g filter="url(#filter0_d_64_33)">
<path d="M16 0C15.0532 0 14.2857 0.767511 14.2857 1.71432V5.14285H17.7142V1.71432C17.7142 0.767511 16.9467 0 16 0Z" fill="#F5F5FC"/>
<path d="M40 0C39.0532 0 38.2856 0.767511 38.2856 1.71432V5.14285H41.7142V1.71432C41.7143 0.767511 40.9468 0 40 0Z" fill="#F5F5FC"/>
<path d="M46.8571 5.14282H41.7143V12C41.7143 12.9468 40.9468 13.7143 40 13.7143C39.0532 13.7143 38.2857 12.9468 38.2857 12V5.14282H17.7142V12C17.7142 12.9468 16.9467 13.7143 15.9999 13.7143C15.0531 13.7143 14.2856 12.9468 14.2856 12V5.14282H9.14285C6.30253 5.14282 4 7.44535 4 10.2857V42.8571C4 45.6974 6.30253 48 9.14285 48H46.8571C49.6975 48 52 45.6974 52 42.8571V10.2857C52 7.44535 49.6975 5.14282 46.8571 5.14282ZM48.5714 42.8571C48.5714 43.8039 47.8039 44.5714 46.857 44.5714H9.14285C8.19605 44.5714 7.42854 43.8039 7.42854 42.8571V20.5714H48.5714V42.8571Z" fill="#F5F5FC"/>
<path d="M17.7142 23.9999H14.2857C13.3389 23.9999 12.5714 24.7674 12.5714 25.7142C12.5714 26.661 13.3389 27.4285 14.2857 27.4285H17.7142C18.661 27.4285 19.4285 26.661 19.4285 25.7142C19.4285 24.7674 18.661 23.9999 17.7142 23.9999Z" fill="#F5F5FC"/>
<path d="M29.7143 23.9999H26.2857C25.3389 23.9999 24.5714 24.7674 24.5714 25.7142C24.5714 26.661 25.3389 27.4285 26.2857 27.4285H29.7143C30.6611 27.4285 31.4286 26.661 31.4286 25.7142C31.4286 24.7674 30.6611 23.9999 29.7143 23.9999Z" fill="#F5F5FC"/>
<path d="M41.7143 23.9999H38.2857C37.3389 23.9999 36.5714 24.7674 36.5714 25.7142C36.5714 26.661 37.3389 27.4285 38.2857 27.4285H41.7143C42.6611 27.4285 43.4286 26.661 43.4286 25.7142C43.4286 24.7674 42.661 23.9999 41.7143 23.9999Z" fill="#F5F5FC"/>
<path d="M17.7142 30.8571H14.2857C13.3389 30.8571 12.5714 31.6246 12.5714 32.5714C12.5714 33.5182 13.3389 34.2857 14.2857 34.2857H17.7142C18.661 34.2857 19.4285 33.5182 19.4285 32.5714C19.4285 31.6246 18.661 30.8571 17.7142 30.8571Z" fill="#F5F5FC"/>
<path d="M29.7143 30.8571H26.2857C25.3389 30.8571 24.5714 31.6246 24.5714 32.5714C24.5714 33.5182 25.3389 34.2857 26.2857 34.2857H29.7143C30.6611 34.2857 31.4286 33.5182 31.4286 32.5714C31.4286 31.6246 30.6611 30.8571 29.7143 30.8571Z" fill="#F5F5FC"/>
<path d="M41.7143 30.8571H38.2857C37.3389 30.8571 36.5714 31.6246 36.5714 32.5714C36.5714 33.5182 37.3389 34.2857 38.2857 34.2857H41.7143C42.6611 34.2857 43.4286 33.5182 43.4286 32.5714C43.4285 31.6246 42.661 30.8571 41.7143 30.8571Z" fill="#F5F5FC"/>
<path d="M17.7142 37.7142H14.2857C13.3389 37.7142 12.5714 38.4817 12.5714 39.4286C12.5714 40.3754 13.3389 41.1428 14.2857 41.1428H17.7142C18.661 41.1428 19.4285 40.3753 19.4285 39.4284C19.4285 38.4816 18.661 37.7142 17.7142 37.7142Z" fill="#F5F5FC"/>
<path d="M29.7143 37.7142H26.2857C25.3389 37.7142 24.5714 38.4817 24.5714 39.4285C24.5714 40.3754 25.3389 41.1429 26.2857 41.1429H29.7143C30.6611 41.1429 31.4286 40.3754 31.4286 39.4285C31.4286 38.4817 30.6611 37.7142 29.7143 37.7142Z" fill="#F5F5FC"/>
<path d="M41.7143 37.7142H38.2857C37.3389 37.7142 36.5714 38.4817 36.5714 39.4285C36.5714 40.3754 37.3389 41.1429 38.2857 41.1429H41.7143C42.6611 41.1429 43.4286 40.3754 43.4286 39.4285C43.4286 38.4817 42.661 37.7142 41.7143 37.7142Z" fill="#F5F5FC"/>
</g>
<defs>
<filter id="filter0_d_64_33" x="0" y="0" width="56" height="56" filterUnits="userSpaceOnUse" color-interpolation-filters="sRGB">
<feFlood flood-opacity="0" result="BackgroundImageFix"/>
<feColorMatrix in="SourceAlpha" type="matrix" values="0 0 0 0 0 0 0 0 0 0 0 0 0 0 0 0 0 0 127 0" result="hardAlpha"/>
<feOffset dy="4"/>
<feGaussianBlur stdDeviation="2"/>
<feComposite in2="hardAlpha" operator="out"/>
<feColorMatrix type="matrix" values="0 0 0 0 0 0 0 0 0 0 0 0 0 0 0 0 0 0 0.25 0"/>
<feBlend mode="normal" in2="BackgroundImageFix" result="effect1_dropShadow_64_33"/>
<feBlend mode="normal" in="SourceGraphic" in2="effect1_dropShadow_64_33" result="shape"/>
</filter>
</defs>
</svg>
